<?xml version="1.0" encoding="UTF-8"?>
<svg id="Layer_1" xmlns="http://www.w3.org/2000/svg" version="1.1" viewBox="0 0 48 48">
  <!-- Generator: Adobe Illustrator 29.7.1, SVG Export Plug-In . SVG Version: 2.1.1 Build 8)  -->
  <path d="M24,0C14.06,0,6,8.06,6,18c0,4.97,2.01,9.47,5.27,12.73l3.31,3.31c.78.78,1.41,2.31,1.41,3.41v.55h16v-.55c0-1.1.64-2.64,1.41-3.41l3.31-3.31c3.26-3.26,5.27-7.76,5.27-12.73C42,8.06,33.94,0,24,0ZM35,20.89l-1.18,2.84-3.74-.55c-.27.32-.59.61-.91.89l.56,3.76-2.84,1.18-2.26-3.04c-.43.04-.85.02-1.27-.02l-2.27,3.06-2.84-1.18.56-3.74c-.32-.27-.61-.59-.89-.91l-3.76.56-1.18-2.84,3.04-2.25c-.03-.43-.02-.85.02-1.27l-3.06-2.26,1.18-2.84,3.74.55c.27-.32.59-.61.91-.89l-.56-3.76,2.84-1.18,2.25,3.04c.43-.04.85-.02,1.27.02l2.27-3.06,2.84,1.18-.56,3.74c.32.27.61.59.89.91l3.76-.56,1.18,2.84-3.04,2.25c.04.43.02.85-.02,1.27l3.06,2.27Z"/>
  <path d="M28,18c0,2.21-1.79,4-4,4s-4-1.79-4-4,1.79-4,4-4,4,1.79,4,4Z"/>
  <path d="M16,41v1c0,2.21,1.79,4,4,4l1,2h6l1-2c2.21,0,4-1.79,4-4v-1h-16Z"/>
</svg>